HIERARCHY
ROOT Hips
{
	OFFSET 0.000000 83.214638 0.000000
	CHANNELS 6 Xposition Yposition Zposition Xrotation Yrotation Zrotation
	JOINT Pelvis
	{
		OFFSET 0.000000 0.000000 0.000000
		CHANNELS 3 Xrotation Yrotation Zrotation
		JOINT LeftUpLeg
		{
			OFFSET 8.479700 -4.795502 -0.379100
			CHANNELS 3 Xrotation Yrotation Zrotation
			JOINT LeftLeg
			{
				OFFSET 0.024144 -32.555107 0.112900
				CHANNELS 3 Xrotation Yrotation Zrotation
				JOINT LeftFoot
				{
					OFFSET -0.024144 -32.638630 -3.012600
					CHANNELS 3 Xrotation Yrotation Zrotation
					JOINT LeftToeBase
					{
						OFFSET 0.970200 -13.225400 11.864200
						CHANNELS 3 Xrotation Yrotation Zrotation
						End Site
						{
							OFFSET 0.000000 12.319262 0.000000
						}
					}
					JOINT LFootTongue
					{
						OFFSET 1.142400 -1.059800 6.665200
						CHANNELS 3 Xrotation Yrotation Zrotation
						End Site
						{
							OFFSET 0.000000 12.319262 0.000000
						}
					}
				}
				JOINT LeftPantLeg
				{
					OFFSET 0.918482 -16.533964 -2.284700
					CHANNELS 3 Xrotation Yrotation Zrotation
					End Site
					{
						OFFSET 0.350399 24.744368 0.000000
					}
				}
			}
		}
		JOINT RightUpLeg
		{
			OFFSET -8.479700 -4.795502 -0.379100
			CHANNELS 3 Xrotation Yrotation Zrotation
			JOINT RightLeg
			{
				OFFSET -0.023144 -32.555092 0.112900
				CHANNELS 3 Xrotation Yrotation Zrotation
				JOINT RightFoot
				{
					OFFSET 0.023144 -32.638641 -3.012700
					CHANNELS 3 Xrotation Yrotation Zrotation
					JOINT RightToeBase
					{
						OFFSET -0.970200 -13.225400 11.864200
						CHANNELS 3 Xrotation Yrotation Zrotation
						End Site
						{
							OFFSET 0.000000 12.319244 0.000000
						}
					}
					JOINT RFootTongue
					{
						OFFSET -1.142200 -1.059800 6.665200
						CHANNELS 3 Xrotation Yrotation Zrotation
						End Site
						{
							OFFSET 0.000000 12.319243 0.000000
						}
					}
				}
				JOINT RightPantLeg
				{
					OFFSET -0.919482 -16.533978 -2.284800
					CHANNELS 3 Xrotation Yrotation Zrotation
					End Site
					{
						OFFSET -0.350400 24.744419 0.000000
					}
				}
			}
		}
	}
	JOINT Spine
	{
		OFFSET 0.000000 7.722000 1.166200
		CHANNELS 3 Xrotation Yrotation Zrotation
		JOINT Spine1
		{
			OFFSET 0.000000 12.024101 0.248800
			CHANNELS 3 Xrotation Yrotation Zrotation
			JOINT Spine2
			{
				OFFSET 0.000000 11.502998 -0.491200
				CHANNELS 3 Xrotation Yrotation Zrotation
				JOINT Neck
				{
					OFFSET 0.000000 18.430702 -3.123100
					CHANNELS 3 Xrotation Yrotation Zrotation
					JOINT Head
					{
						OFFSET 0.000000 9.051102 1.034000
						CHANNELS 3 Xrotation Yrotation Zrotation
						JOINT HairB
						{
							OFFSET 0.208400 24.786102 24.822300
							CHANNELS 3 Xrotation Yrotation Zrotation
							End Site
							{
								OFFSET 0.000000 32.263779 0.000000
							}
						}
						JOINT HairA
						{
							OFFSET -7.081100 24.428299 23.196600
							CHANNELS 3 Xrotation Yrotation Zrotation
							End Site
							{
								OFFSET 0.000000 32.263779 0.000000
							}
						}
						JOINT Hat
						{
							OFFSET 16.728800 15.048294 -15.439601
							CHANNELS 3 Xrotation Yrotation Zrotation
							End Site
							{
								OFFSET 0.000000 32.263779 0.000000
							}
						}
					}
				}
				JOINT LeftShoulder
				{
					OFFSET 6.197800 13.665199 -4.064700
					CHANNELS 3 Xrotation Yrotation Zrotation
					JOINT LeftArm
					{
						OFFSET 7.778100 -0.187103 -1.709300
						CHANNELS 3 Xrotation Yrotation Zrotation
						JOINT LeftForeArm
						{
							OFFSET 22.049376 0.000000 0.000000
							CHANNELS 3 Xrotation Yrotation Zrotation
							JOINT LeftHand
							{
								OFFSET 23.009392 0.000000 0.000000
								CHANNELS 3 Xrotation Yrotation Zrotation
								JOINT LeftHandThumb1
								{
									OFFSET 3.507191 -2.063065 3.133727
									CHANNELS 3 Xrotation Yrotation Zrotation
									JOINT LeftHandThumb2
									{
										OFFSET 3.101337 -1.790558 1.790558
										CHANNELS 3 Xrotation Yrotation Zrotation
										JOINT LeftHandThumb3
										{
											OFFSET 3.058640 -1.765907 1.765906
											CHANNELS 3 Xrotation Yrotation Zrotation
											End Site
											{
												OFFSET -0.415260 3.926476 -0.049563
											}
										}
									}
								}
								JOINT LeftHandIndex1
								{
									OFFSET 11.334419 -0.901459 3.706815
									CHANNELS 3 Xrotation Yrotation Zrotation
									JOINT LeftHandIndex2
									{
										OFFSET 3.283112 0.000000 0.000000
										CHANNELS 3 Xrotation Yrotation Zrotation
										JOINT LeftHandIndex3
										{
											OFFSET 3.323853 0.000000 0.000000
											CHANNELS 3 Xrotation Yrotation Zrotation
											End Site
											{
												OFFSET -1.135597 3.097809 0.402452
											}
										}
									}
								}
								JOINT LeftHandMiddle1
								{
									OFFSET 11.335861 0.000000 0.000000
									CHANNELS 3 Xrotation Yrotation Zrotation
									JOINT LeftHandMiddle2
									{
										OFFSET 3.410492 0.000000 0.000000
										CHANNELS 3 Xrotation Yrotation Zrotation
										JOINT LeftHandMiddle3
										{
											OFFSET 3.312172 0.000000 0.000000
											CHANNELS 3 Xrotation Yrotation Zrotation
											End Site
											{
												OFFSET -1.150200 3.080154 0.400270
											}
										}
									}
								}
								JOINT LeftHandRing1
								{
									OFFSET 11.514786 -0.013176 -3.003090
									CHANNELS 3 Xrotation Yrotation Zrotation
									JOINT LeftHandRing2
									{
										OFFSET 3.053307 0.000000 0.000000
										CHANNELS 3 Xrotation Yrotation Zrotation
										JOINT LeftHandRing3
										{
											OFFSET 3.295807 0.000000 0.000000
											CHANNELS 3 Xrotation Yrotation Zrotation
											End Site
											{
												OFFSET -1.281006 3.013344 0.375733
											}
										}
									}
								}
								JOINT LeftHandPinky1
								{
									OFFSET 10.518692 -0.960396 -5.730441
									CHANNELS 3 Xrotation Yrotation Zrotation
									JOINT LeftHandPinky2
									{
										OFFSET 2.861649 0.000000 0.000000
										CHANNELS 3 Xrotation Yrotation Zrotation
										JOINT LeftHandPinky3
										{
											OFFSET 2.863380 0.000000 0.000000
											CHANNELS 3 Xrotation Yrotation Zrotation
											End Site
											{
												OFFSET -0.843597 2.711159 0.369971
											}
										}
									}
								}
							}
							JOINT LSleeve
							{
								OFFSET 6.676277 -0.344902 -1.011730
								CHANNELS 3 Xrotation Yrotation Zrotation
								End Site
								{
									OFFSET 0.000000 14.885353 0.000000
								}
							}
						}
					}
				}
				JOINT RightShoulder
				{
					OFFSET -6.197800 13.665199 -4.064700
					CHANNELS 3 Xrotation Yrotation Zrotation
					JOINT RightArm
					{
						OFFSET -7.778100 -0.187103 -1.709300
						CHANNELS 3 Xrotation Yrotation Zrotation
						JOINT RightForeArm
						{
							OFFSET -22.049376 0.000000 0.000000
							CHANNELS 3 Xrotation Yrotation Zrotation
							JOINT RightHand
							{
								OFFSET -23.009392 0.000000 0.000000
								CHANNELS 3 Xrotation Yrotation Zrotation
								JOINT RightHandThumb1
								{
									OFFSET -3.507191 -2.063065 3.133727
									CHANNELS 3 Xrotation Yrotation Zrotation
									JOINT RightHandThumb2
									{
										OFFSET -3.101337 -1.790558 1.790558
										CHANNELS 3 Xrotation Yrotation Zrotation
										JOINT RightHandThumb3
										{
											OFFSET -3.058640 -1.765907 1.765906
											CHANNELS 3 Xrotation Yrotation Zrotation
											End Site
											{
												OFFSET 0.415260 3.926476 -0.049563
											}
										}
									}
								}
								JOINT RightHandIndex1
								{
									OFFSET -11.334419 -0.901459 3.706815
									CHANNELS 3 Xrotation Yrotation Zrotation
									JOINT RightHandIndex2
									{
										OFFSET -3.283112 0.000000 0.000000
										CHANNELS 3 Xrotation Yrotation Zrotation
										JOINT RightHandIndex3
										{
											OFFSET -3.323853 0.000000 0.000000
											CHANNELS 3 Xrotation Yrotation Zrotation
											End Site
											{
												OFFSET 1.135597 3.097809 0.402452
											}
										}
									}
								}
								JOINT RightHandMiddle1
								{
									OFFSET -11.335861 0.000000 0.000000
									CHANNELS 3 Xrotation Yrotation Zrotation
									JOINT RightHandMiddle2
									{
										OFFSET -3.410492 0.000000 0.000000
										CHANNELS 3 Xrotation Yrotation Zrotation
										JOINT RightHandMiddle3
										{
											OFFSET -3.312172 0.000000 0.000000
											CHANNELS 3 Xrotation Yrotation Zrotation
											End Site
											{
												OFFSET 1.150200 3.080154 0.400270
											}
										}
									}
								}
								JOINT RightHandRing1
								{
									OFFSET -11.514786 -0.013176 -3.003090
									CHANNELS 3 Xrotation Yrotation Zrotation
									JOINT RightHandRing2
									{
										OFFSET -3.053307 0.000000 0.000000
										CHANNELS 3 Xrotation Yrotation Zrotation
										JOINT RightHandRing3
										{
											OFFSET -3.295807 0.000000 0.000000
											CHANNELS 3 Xrotation Yrotation Zrotation
											End Site
											{
												OFFSET 1.281006 3.013344 0.375733
											}
										}
									}
								}
								JOINT RightHandPinky1
								{
									OFFSET -10.518692 -0.960396 -5.730441
									CHANNELS 3 Xrotation Yrotation Zrotation
									JOINT RightHandPinky2
									{
										OFFSET -2.861649 0.000000 0.000000
										CHANNELS 3 Xrotation Yrotation Zrotation
										JOINT RightHandPinky3
										{
											OFFSET -2.863380 0.000000 0.000000
											CHANNELS 3 Xrotation Yrotation Zrotation
											End Site
											{
												OFFSET 0.843597 2.711159 0.369971
											}
										}
									}
								}
							}
							JOINT RSleeve
							{
								OFFSET -6.676277 -0.344902 -1.011730
								CHANNELS 3 Xrotation Yrotation Zrotation
								End Site
								{
									OFFSET 0.000000 14.885353 0.000000
								}
							}
						}
					}
				}
				JOINT Backpack
				{
					OFFSET 0.000000 -2.471497 36.677502
					CHANNELS 3 Xrotation Yrotation Zrotation
					End Site
					{
						OFFSET 0.000000 20.427315 0.000000
					}
				}
				JOINT Hood
				{
					OFFSET 0.000000 18.754097 -10.431000
					CHANNELS 3 Xrotation Yrotation Zrotation
					JOINT Hood1
					{
						OFFSET 0.000000 -5.011002 -7.685901
						CHANNELS 3 Xrotation Yrotation Zrotation
						End Site
						{
							OFFSET 0.000000 9.175140 0.000000
						}
					}
				}
				JOINT LHoodieString
				{
					OFFSET 5.250500 16.397697 3.089900
					CHANNELS 3 Xrotation Yrotation Zrotation
					JOINT LHoodieString1
					{
						OFFSET 0.257700 -6.364304 3.694600
						CHANNELS 3 Xrotation Yrotation Zrotation
						JOINT LHoodieString2
						{
							OFFSET 0.000000 -9.643799 2.679100
							CHANNELS 3 Xrotation Yrotation Zrotation
							End Site
							{
								OFFSET 0.000000 10.009018 0.000000
							}
						}
					}
				}
				JOINT RHoodieString
				{
					OFFSET -5.250500 16.397697 3.089900
					CHANNELS 3 Xrotation Yrotation Zrotation
					JOINT RHoodieString1
					{
						OFFSET -0.257700 -6.364304 3.694600
						CHANNELS 3 Xrotation Yrotation Zrotation
						JOINT RHoodieString2
						{
							OFFSET 0.000000 -9.643799 2.679100
							CHANNELS 3 Xrotation Yrotation Zrotation
							End Site
							{
								OFFSET 0.000000 10.009018 0.000000
							}
						}
					}
				}
			}
			JOINT LBackpack_Strap
			{
				OFFSET 15.223200 -7.719803 -6.610900
				CHANNELS 3 Xrotation Yrotation Zrotation
				End Site
				{
					OFFSET 0.000000 16.040596 0.000000
				}
			}
			JOINT RBackpack_Strap
			{
				OFFSET -15.223000 -7.719803 -6.610900
				CHANNELS 3 Xrotation Yrotation Zrotation
				End Site
				{
					OFFSET 0.000000 16.040596 0.000000
				}
			}
		}
	}
	JOINT BoyFacialAnim_Joint
	{
		OFFSET 1.000000 -82.208099 -1.550900
		CHANNELS 3 Xrotation Yrotation Zrotation
		End Site
		{
			OFFSET 0.000000 30.012791 0.000000
		}
	}
}
MOTION
Frames: 4
Frame Time: 0.033333
7.328862 70.160110 0.139658 -1.888724 -66.785002 -1.289442 -0.000000 0.000001 0.000000 -47.179129 16.109239 35.305716 61.244776 7.088699 -3.450257 -7.961189 18.397618 -12.001896 0.000000 -0.000000 -0.000000 0.000000 -0.000000 -0.000000 -0.000000 -0.000001 -0.000000 -30.558495 -12.952843 -32.757761 56.041238 8.995017 -4.834799 -25.289955 1.237232 25.104427 0.000000 -0.000000 -0.000000 0.000000 -0.000000 -0.000000 -0.000000 0.000001 0.000001 9.458463 -0.524912 -3.012040 2.622414 -0.087917 -1.396663 2.621825 -0.104077 -1.396014 3.570662 8.089642 -1.676777 -13.131192 40.616796 0.369442 -0.000000 -0.000001 0.000000 -0.000000 -0.000001 0.000000 -0.000000 -0.000001 0.000000 0.888983 -7.598480 -1.456791 -22.112152 4.759558 -50.735799 -0.000016 -36.978757 -0.000014 34.538812 -20.658389 27.129353 -8.798624 7.255580 -1.095138 1.976986 10.914074 3.792266 -0.000004 0.000001 -0.000001 -0.097251 -4.334042 -1.534313 0.037822 0.722190 -5.995525 0.000000 -0.000005 -0.000004 0.001001 0.117874 -0.976817 0.040119 0.743732 -6.175116 -0.000000 -0.000001 -0.000002 0.215099 4.684638 -2.464672 0.107720 1.215644 -10.127416 0.000001 -0.000003 -0.000006 1.112171 15.538209 -3.278879 0.125382 -2.714048 -11.689452 -0.000001 0.000001 0.000000 0.000001 0.000000 -0.000002 0.796971 10.688087 6.339371 10.011009 33.090176 62.426201 -0.000001 105.066744 0.000010 -0.237085 8.192341 3.232116 3.148329 -1.147105 -12.660207 5.593570 -13.851669 1.397386 -0.000000 0.000000 -0.000001 0.047077 -0.809264 6.655819 0.787851 -3.219853 27.491639 -0.000002 0.000001 0.000004 0.047080 -0.809268 6.655825 0.790222 -3.224417 27.534082 0.000000 0.000001 -0.000002 0.342516 -2.801421 8.434526 0.732614 -3.111622 26.491925 0.000002 -0.000000 -0.000001 0.533794 -3.520024 10.368431 0.788123 -3.220402 27.496631 0.000000 -0.000000 0.000000 0.000001 -0.000000 -0.000000 0.000001 -0.000001 0.000000 0.000001 -0.000001 0.000000 0.000001 -0.000001 0.000000 0.000001 -0.000001 0.000000 0.000001 -0.000001 0.000000 0.000000 -0.000002 -0.000000 0.000001 -0.000001 0.000000 0.000001 -0.000001 0.000000 0.000000 -0.000002 -0.000000 0.000001 0.000002 -0.000001 0.000001 0.000002 -0.000001 -0.000000 0.000001 0.000000 
7.294357 70.226151 -0.035751 -1.891869 -66.706879 -1.088584 -0.000000 -0.000002 -0.000000 -46.876842 16.291246 35.302758 60.696353 6.922843 -3.700132 -7.916282 18.004420 -11.816668 0.000000 0.000000 -0.000000 0.000000 0.000000 0.000000 -0.000000 -0.000000 -0.000000 -30.703760 -12.805826 -32.631635 56.401066 9.125017 -4.895126 -25.106570 0.728144 24.486518 0.000000 0.000000 -0.000000 0.000000 0.000000 -0.000000 0.000003 -0.000000 -0.000000 9.481317 -0.494914 -2.975252 2.631759 -0.077972 -1.379693 2.631265 -0.093833 -1.379154 3.597092 8.069876 -1.752938 -13.004935 40.536606 0.098768 0.000000 -0.000001 0.000000 0.000000 -0.000001 0.000000 0.000000 -0.000001 0.000000 0.891225 -7.625616 -1.463261 -22.497629 5.023716 -50.896131 0.000003 -36.852071 -0.000009 34.321021 -21.051872 26.081347 -9.040185 7.167510 -1.277468 1.976996 10.914074 3.792261 -0.000001 0.000001 -0.000001 -0.095666 -4.275432 -1.527122 0.044748 0.785346 -6.522213 0.000002 -0.000001 -0.000004 0.001010 0.117878 -0.976823 0.048682 0.818977 -6.802761 0.000005 -0.000003 -0.000002 0.213778 4.653825 -2.468281 0.125253 1.310013 -10.923256 0.000003 0.000000 -0.000002 1.103573 15.394683 -3.293941 0.146664 -2.615004 -12.527902 0.000003 -0.000004 -0.000003 -0.000001 0.000001 0.000003 0.800488 10.562874 6.197589 9.963612 33.365368 62.114697 0.000051 105.154485 -0.000065 -0.195973 8.104453 3.298058 3.119714 -1.172757 -12.755474 5.569858 -13.708765 1.425273 -0.000001 0.000001 -0.000001 0.045840 -0.798727 6.568866 0.724111 -3.094518 26.334662 -0.000001 0.000001 0.000004 0.045838 -0.798722 6.568879 0.729016 -3.104363 26.425030 0.000003 0.000001 -0.000002 0.334300 -2.764413 8.350540 0.670875 -2.984695 25.330622 -0.000001 -0.000000 0.000002 0.522221 -3.475921 10.285094 0.724692 -3.095688 26.345312 0.000001 -0.000001 0.000000 0.000001 -0.000000 -0.000000 0.000001 -0.000001 -0.000000 0.000001 -0.000001 -0.000000 0.000001 -0.000001 -0.000000 0.000001 -0.000001 -0.000000 0.000001 -0.000001 0.000000 0.000001 0.000000 -0.000000 0.000001 -0.000001 -0.000000 0.000001 -0.000001 0.000000 0.000001 0.000000 -0.000000 0.000000 0.000002 -0.000000 0.000000 0.000002 -0.000000 -0.000000 -0.000002 -0.000000 
7.276419 70.297417 -0.210641 -1.916431 -66.673247 -0.861334 -0.000000 -0.000001 0.000000 -46.629404 16.666259 35.392124 60.110439 6.812617 -3.985024 -7.870136 17.542624 -11.543396 0.000000 -0.000000 -0.000000 0.000000 -0.000000 -0.000000 0.000000 -0.000001 0.000000 -30.788427 -12.667621 -32.584548 56.603379 9.324845 -4.975918 -25.149728 0.391626 24.099158 0.000000 -0.000000 0.000000 0.000000 -0.000000 0.000000 -0.000002 0.000000 -0.000002 9.506644 -0.489086 -2.955156 2.628459 -0.075961 -1.368574 2.627996 -0.091726 -1.368036 3.669625 8.053695 -1.787987 -12.797537 40.479738 -0.066061 -0.000000 -0.000001 -0.000000 -0.000000 -0.000001 -0.000000 -0.000000 -0.000001 -0.000000 0.888244 -7.558083 -1.414077 -22.849250 5.112155 -51.172259 -0.000009 -36.365324 0.000001 34.191763 -21.350618 25.266938 -9.370669 7.057686 -1.573859 1.976995 10.914109 3.792278 0.000000 -0.000001 -0.000003 -0.092182 -4.144311 -1.511028 0.056759 0.884127 -7.346852 -0.000001 -0.000001 -0.000005 0.001002 0.117883 -0.976818 0.063453 0.934490 -7.767913 0.000001 -0.000002 -0.000000 0.208881 4.540856 -2.481530 0.151110 1.437467 -12.001471 -0.000003 0.000001 0.000002 1.084194 15.073580 -3.327666 0.177806 -2.481261 -13.664418 -0.000000 0.000005 0.000002 -0.000001 -0.000001 0.000001 0.803861 10.457306 6.063839 9.882771 33.679229 61.709482 0.000240 104.934273 -0.000230 -0.281748 7.974686 3.528943 3.077523 -1.187337 -12.810748 5.545746 -13.584496 1.440180 0.000001 -0.000000 0.000000 0.043026 -0.773964 6.364362 0.638539 -2.915491 24.702218 -0.000001 -0.000001 -0.000000 0.043025 -0.773959 6.364367 0.648214 -2.936384 24.891614 0.000002 0.000000 0.000003 0.315379 -2.677320 8.153080 0.587999 -2.803153 23.689101 0.000002 -0.000000 -0.000001 0.495448 -3.372135 10.089174 0.639661 -2.917961 24.724602 -0.000000 -0.000001 -0.000000 0.000001 -0.000000 -0.000001 0.000000 0.000001 -0.000000 0.000000 0.000001 -0.000000 0.000000 0.000001 -0.000000 0.000000 0.000001 -0.000000 0.000000 0.000001 -0.000000 0.000000 0.000001 -0.000000 0.000000 0.000001 -0.000000 0.000000 0.000001 -0.000000 0.000000 0.000001 -0.000000 -0.000000 0.000001 -0.000000 -0.000000 0.000001 -0.000000 -0.000000 -0.000001 0.000000 
7.274968 70.380051 -0.351529 -1.850147 -66.595628 -0.573072 0.000000 0.000003 0.000000 -46.487637 16.973544 35.485818 59.595217 6.724254 -4.259852 -7.628277 17.009410 -11.326621 0.000000 0.000000 -0.000000 0.000000 0.000000 -0.000000 -0.000000 0.000001 0.000001 -31.099047 -12.624199 -32.651808 56.960427 9.336671 -5.000527 -25.011412 0.302478 23.458905 0.000000 0.000000 0.000000 0.000000 0.000000 0.000000 -0.000002 0.000000 -0.000000 9.498255 -0.546451 -2.912488 2.613012 -0.098042 -1.357592 2.612414 -0.113722 -1.356798 3.777838 8.048669 -1.763341 -12.508294 40.486315 -0.091736 -0.000000 0.000000 -0.000000 -0.000000 0.000000 -0.000000 -0.000000 0.000000 -0.000000 0.885747 -7.482319 -1.314767 -23.031096 4.955572 -51.452095 0.000018 -35.544253 0.000016 33.732231 -21.360039 24.500315 -9.787570 6.931881 -1.984912 1.976993 10.914068 3.792262 -0.000001 -0.000001 -0.000002 -0.086032 -3.909286 -1.482228 0.075583 1.019409 -8.479040 -0.000001 -0.000003 -0.000001 0.001005 0.117873 -0.976822 0.086617 1.090942 -9.078991 0.000005 -0.000000 -0.000002 0.199107 4.317250 -2.507791 0.187698 1.599888 -13.382041 -0.000000 -0.000002 -0.000003 1.049046 14.498070 -3.388276 0.221519 -2.311119 -15.118262 -0.000000 -0.000001 -0.000000 0.000001 0.000001 -0.000003 0.805605 10.384766 5.979737 9.798120 33.879921 61.236819 0.000124 104.393588 -0.000134 -0.490832 7.712904 3.858227 3.023603 -1.192245 -12.830954 5.521095 -13.476491 1.443561 0.000001 0.000001 0.000002 0.038216 -0.729379 5.996229 0.534837 -2.678867 22.577590 -0.000001 0.000001 0.000002 0.038227 -0.729384 5.996223 0.551242 -2.717916 22.925991 0.000001 0.000001 -0.000000 0.282646 -2.520346 7.797716 0.487853 -2.563038 21.549792 -0.000000 0.000000 0.000000 0.448885 -3.184966 9.736683 0.536764 -2.683494 22.618766 -0.000000 -0.000001 -0.000002 -0.000001 0.000001 0.000001 0.000000 0.000000 -0.000001 0.000000 0.000000 -0.000001 0.000000 0.000000 -0.000001 0.000000 0.000000 -0.000001 0.000000 0.000000 -0.000000 0.000001 0.000002 -0.000000 0.000000 0.000000 -0.000001 0.000000 0.000000 -0.000000 0.000001 0.000002 -0.000000 0.000000 -0.000003 0.000000 0.000000 -0.000003 0.000000 0.000000 0.000003 0.000000 
